

<svg xmlns="http://www.w3.org/2000/svg" version="1.1" xmlns:xlink="http://www.w3.org/1999/xlink"
    xmlns:svgjs="http://svgjs.dev/svgjs" width="2000" height="2000" viewBox="0 0 2000 2000">
    <g transform="matrix(1,0,0,1,-0.28443113772425477,-0.28443113772459583)">
        <svg viewBox="0 0 334 334" data-background-color="#050816"
            preserveAspectRatio="xMidYMid meet" height="2000" width="2000"
            xmlns="http://www.w3.org/2000/svg" xmlns:xlink="http://www.w3.org/1999/xlink">
            <g id="tight-bounds" transform="matrix(1,0,0,1,0.04749999999998522,0.04750000000001364)">
                <svg viewBox="0 0 333.90454557049503 333.90454557049503" height="333.90454557049503"
                    width="333.90454557049503">
                    <g>
                        <svg></svg>
                    </g>
                    <g>
                        <svg viewBox="0 0 333.90454557049503 333.90454557049503"
                            height="333.90454557049503" width="333.90454557049503">
                            <g>
                                <path
                                    d="M0 166.952c0-92.205 74.747-166.952 166.952-166.952 92.205 0 166.952 74.747 166.953 166.952 0 92.205-74.747 166.952-166.953 166.953-92.205 0-166.952-74.747-166.952-166.953zM166.952 323.214c86.301 0 156.262-69.961 156.262-156.262 0-86.301-69.961-156.262-156.262-156.262-86.301 0-156.262 69.961-156.262 156.262 0 86.301 69.961 156.262 156.262 156.262z"
                                    data-fill-palette-color="tertiary" fill="#ff0033"
                                    stroke="transparent"></path>
                                <ellipse rx="160.27418187383762" ry="160.27418187383762"
                                    cx="166.95227278524752" cy="166.95227278524752" fill="#ff0033"
                                    stroke="transparent" stroke-width="0" fill-opacity="1"
                                    data-fill-palette-color="tertiary"></ellipse>
                            </g>
                            <g transform="matrix(1,0,0,1,108.6578895792401,71.17305217166896)">
                                <svg viewBox="0 0 116.58876641201483 191.55844122715712"
                                    height="191.55844122715712" width="116.58876641201483">
                                    <g>
                                        <svg viewBox="0 0 116.58876641201483 191.55844122715712"
                                            height="191.55844122715712" width="116.58876641201483">
                                            <g>
                                                <svg
                                                    viewBox="0 0 188.39949595626075 309.5453780326152"
                                                    height="191.55844122715712"
                                                    width="116.58876641201483">
                                                    <g>
                                                        <svg
                                                            viewBox="0 0 188.39949595626075 191.55844122715715"
                                                            height="191.55844122715715"
                                                            width="188.39949595626075">
                                                            <g id="textblocktransform">
                                                                <svg
                                                                    viewBox="0 0 188.39949595626075 191.55844122715715"
                                                                    height="191.55844122715715"
                                                                    width="188.39949595626075"
                                                                    id="textblock">
                                                                    <g>
                                                                        <svg
                                                                            viewBox="0 0 188.39949595626075 191.55844122715715"
                                                                            height="191.55844122715715"
                                                                            width="188.39949595626075">
                                                                            <g
                                                                                transform="matrix(1,0,0,1,0,0)">
                                                                                <svg
                                                                                    width="188.39949595626075"
                                                                                    viewBox="2.759999990463257 -37.0099983215332 36.400001525878906 37.0099983215332"
                                                                                    height="191.55844122715715"
                                                                                    data-palette-color="#ffffff">
                                                                                    <path
                                                                                        d="M2.76-30.3L2.76-37.01 18.6-37.01 18.6-30.3 14.7-30.3 14.7-19.53 26.54-29.86 26.54-37.01 39.16-37.01 39.16-29.81 36.4-29.81 24.07-19.21 35.89-7.25 38.89-7.25 38.89 0 26.61 0 26.61-7.25 14.7-19.17 14.7-6.69 18.6-6.69 18.6 0 2.76 0 2.76-6.69 6.59-6.69 6.59-30.3 2.76-30.3Z"
                                                                                        opacity="1"
                                                                                        transform="matrix(1,0,0,1,0,0)"
                                                                                        fill="#ffffff"
                                                                                        class="undefined-text-0"
                                                                                        data-fill-palette-color="quaternary"
                                                                                        id="text-0"></path>
                                                                                </svg>
                                                                            </g>
                                                                        </svg>
                                                                    </g>
                                                                </svg>
                                                            </g>
                                                        </svg>
                                                    </g>
                                                    <g
                                                        transform="matrix(1,0,0,1,35.9843037276458,236.7807917982995)">
                                                        <svg
                                                            viewBox="0 0 116.43088850096915 72.76458623431573"
                                                            height="72.76458623431573"
                                                            width="116.43088850096915">
                                                            <g>
                                                                <svg
                                                                    xmlns="http://www.w3.org/2000/svg"
                                                                    xmlns:xlink="http://www.w3.org/1999/xlink"
                                                                    version="1.1" x="0" y="0"
                                                                    viewBox="0 18.003889083862305 96 59.99610900878906"
                                                                    enable-background="new 0 0 96 96"
                                                                    xml:space="preserve"
                                                                    height="72.76458623431573"
                                                                    width="116.43088850096915"
                                                                    class="icon-icon-0"
                                                                    data-fill-palette-color="quaternary"
                                                                    id="icon-0"><path d="M28.416 76.572c-1.024 0-2.048-0.393-2.832-1.172L1.172 50.844C0.42 50.092 0 49.068 0 48c0-1.068 0.42-2.088 1.176-2.848l24.412-24.548c1.56-1.568 4.092-1.576 5.656 0.004 1.56 1.58 1.56 4.12-0.004 5.696L9.664 48l21.58 21.704c1.56 1.571 1.56 4.116 0 5.688C30.464 76.18 29.432 76.572 28.416 76.572L28.416 76.572z" fill="#ffffff" data-fill-palette-color="quaternary"></path><path d="M67.588 76.572c-1.023 0-2.052-0.393-2.828-1.18-1.568-1.572-1.568-4.117 0-5.697L86.344 48 64.76 26.304c-1.568-1.58-1.568-4.12 0-5.696 1.568-1.58 4.088-1.576 5.656-0.008l24.412 24.552C95.58 45.9 96 46.928 96 48c0 1.068-0.42 2.088-1.172 2.844L70.416 75.393C69.641 76.18 68.611 76.572 67.588 76.572L67.588 76.572z" fill="#ffffff" data-fill-palette-color="quaternary"></path><path d="M38.348 78c-0.476 0-0.964-0.084-1.436-0.264-2.06-0.805-3.092-3.133-2.296-5.213l19.868-51.947c0.795-2.076 3.107-3.096 5.168-2.304 2.06 0.796 3.088 3.124 2.296 5.204L42.072 75.424C41.476 77.016 39.952 78 38.348 78z" fill="#ffffff" data-fill-palette-color="quaternary"></path></svg>
                                                            </g>
                                                        </svg>
                                                    </g>
                                                    <g></g>
                                                </svg>
                                            </g>
                                        </svg>
                                    </g>
                                </svg>
                            </g>
                        </svg>
                    </g>
                    <defs></defs>
                </svg>
                <rect width="333.90454557049503" height="333.90454557049503" fill="none"
                    stroke="none" visibility="hidden"></rect>
            </g>
        </svg>
    </g>
</svg>